<?xml version="1.0" encoding="UTF-8" standalone="no"?>
<!DOCTYPE svg PUBLIC "-//W3C//DTD SVG 1.1//EN" "http://www.w3.org/Graphics/SVG/1.1/DTD/svg11.dtd">
<svg width="100%" height="100%" viewBox="0 0 5000 4000" version="1.1" xmlns="http://www.w3.org/2000/svg" xmlns:xlink="http://www.w3.org/1999/xlink" xml:space="preserve" xmlns:serif="http://www.serif.com/" style="fill-rule:evenodd;clip-rule:evenodd;stroke-linejoin:round;stroke-miterlimit:2;">
    <path d="M2255.02,1843.45C2310.03,1823.85 2365.36,1812.34 2422.51,1804.92C2423.16,1799.83 2423.89,1795.44 2424.24,1791.02C2424.51,1787.71 2424.27,1784.36 2424.31,1781.02C2424.55,1755.75 2430.39,1747.6 2454.87,1738.35C2457.91,1723.18 2458.08,1659.27 2454.91,1640.02C2451.46,1639.65 2447.66,1638.93 2443.86,1638.9C2425.86,1638.77 2407.86,1638.83 2389.87,1638.81C2385.87,1638.8 2381.84,1639.02 2377.87,1638.67C2360.02,1637.11 2347.14,1624.03 2345.62,1606.17C2344.23,1589.76 2356.8,1573.55 2373.96,1570.13C2378.48,1569.23 2383.23,1569.23 2387.88,1569.23C2469.2,1569.18 2550.53,1569.22 2631.85,1569.15C2642.77,1569.14 2653,1570.55 2661.62,1578.24C2672.88,1588.29 2675.58,1600.84 2671.66,1614.61C2667.62,1628.78 2657.37,1636.7 2642.74,1638.56C2638.8,1639.06 2634.75,1638.8 2630.75,1638.8C2614.09,1638.83 2597.42,1638.75 2580.76,1638.86C2575.57,1638.9 2570.38,1639.43 2565.56,1639.71C2562.26,1655.3 2561.49,1706.74 2563.93,1736.65C2565.14,1737.52 2566.52,1739.13 2568.23,1739.63C2587.9,1745.43 2595.3,1759.69 2595.66,1778.91C2595.8,1786.8 2595.96,1794.68 2596.12,1803.23C2603.76,1804.76 2610.11,1806.42 2616.57,1807.27C2730.01,1822.15 2834.9,1860.64 2931.24,1922.11C3045.37,1994.93 3134.84,2091.01 3199.82,2209.8C3226.12,2257.89 3246.85,2308.33 3262.49,2360.86C3265.95,2372.46 3268.14,2383.95 3264.55,2396.16C3258.33,2417.28 3241.32,2431.74 3219.89,2433.12C3196.3,2434.63 3177.35,2423.51 3168.64,2402.66C3166.35,2397.15 3164.95,2391.26 3163.21,2385.53C3091.74,2149.77 2894.43,1968.45 2653.84,1917.08C2586.14,1902.63 2517.66,1898.51 2449.07,1905.06C2298.24,1919.48 2166.45,1978.49 2054.31,2080.38C1969.34,2157.59 1907.9,2250.74 1869.26,2358.9C1862.71,2377.25 1858.3,2395.82 1858.79,2415.51C1859.51,2444.23 1869.97,2468.65 1889.8,2489.17C1903.41,2503.26 1919.68,2513.47 1937.48,2521.49C1962.63,2532.82 1989.14,2539.38 2016.26,2543.02C2060.63,2548.99 2105.17,2548.75 2149.86,2545.73C2213.95,2541.41 2276.5,2528.54 2338.94,2514.63C2450.74,2489.71 2562.59,2464.99 2674.33,2439.76C2713.34,2430.96 2752.46,2422.92 2792.11,2417.75C2831.08,2412.67 2870.17,2408.64 2909.54,2408.33C2941.52,2408.07 2973.47,2408.14 3005.36,2411.7C3043.23,2415.93 3080.69,2422.2 3116.36,2435.85C3208.23,2471.04 3262.39,2537.83 3278.52,2634.57C3283.35,2663.54 3281.87,2693.01 3273.95,2721.82C3260.46,2770.91 3231.19,2807.07 3185.73,2829.8C3152.49,2846.43 3116.91,2854.44 3079.88,2856.26C3073.23,2856.59 3066.56,2856.34 3059.89,2856.34C2641.94,2856.34 2223.99,2856.34 1806.04,2856.33C1798.71,2856.33 1791.34,2856.68 1784.05,2856.08C1757.36,2853.87 1738.43,2832.1 1738.81,2804.47C1739.17,2777.76 1757.88,2757.26 1784.19,2755.11C1791.48,2754.52 1798.85,2754.8 1806.18,2754.8C2222.79,2754.79 2639.41,2754.77 3056.03,2754.87C3076.15,2754.87 3095.94,2752.97 3115.33,2747.67C3128.25,2744.13 3140.52,2739.07 3151.34,2730.88C3164.67,2720.78 3173.39,2707.71 3176.29,2691.26C3184.37,2645.39 3170.96,2605.67 3140.63,2571.27C3121.6,2549.68 3097.4,2536.2 3070,2527.94C3033.38,2516.91 2995.89,2512.09 2957.75,2510.75C2873.32,2507.79 2790.38,2518.65 2708.21,2536.95C2574.3,2566.78 2440.49,2597.02 2306.47,2626.36C2219.48,2645.41 2131.37,2653.14 2042.33,2648.14C1999.56,2645.74 1957.66,2638.18 1917.28,2623.58C1873.3,2607.67 1834.18,2584.05 1804.46,2547.23C1759.15,2491.09 1745.4,2427.49 1762.73,2357.56C1772.06,2319.92 1787.01,2284.22 1803.75,2249.36C1878.58,2093.62 1992.15,1974.6 2143.89,1892.05C2179.04,1872.93 2215.69,1857.04 2255.02,1843.45Z" style="fill:white;fill-rule:nonzero;"/>
    <path d="M3009.28,2271.25C3015.38,2283.78 3017.68,2295.07 3013.33,2307.34C3007.94,2322.56 2997.36,2331.94 2981.98,2335.09C2965.73,2338.41 2951.53,2333.52 2941.01,2320.34C2937.31,2315.71 2934.61,2310.24 2931.75,2304.99C2871.16,2193.67 2778.84,2124.47 2655.17,2097.39C2627.18,2091.26 2598.53,2089.38 2569.84,2089.25C2565.18,2089.23 2560.5,2089.6 2555.87,2089.28C2535.96,2087.91 2520.92,2073.32 2518.99,2053.75C2516.79,2031.38 2528.45,2012.73 2548.8,2008.09C2558.42,2005.9 2568.61,2005.1 2578.51,2005.35C2615.15,2006.27 2651.64,2009.32 2687.36,2018.05C2827.74,2052.38 2932.54,2133.37 3002.96,2259.28C3004.91,2262.76 3006.67,2266.35 3009.28,2271.25Z" style="fill:white;fill-rule:nonzero;"/>
    <path d="M1896.54,1729.46C1879.88,1739.38 1865.13,1737.68 1850.05,1728.8C1815.04,1708.2 1779.71,1688.14 1744.52,1667.84C1741.64,1666.18 1738.68,1664.58 1736.04,1662.57C1720.24,1650.53 1716.05,1629.86 1725.46,1612.44C1733.47,1597.61 1754.67,1587.1 1773.7,1595.84C1778.53,1598.06 1783.22,1600.63 1787.83,1603.28C1820.71,1622.24 1853.56,1641.25 1886.43,1660.24C1888.73,1661.58 1891.12,1662.79 1893.35,1664.24C1915.01,1678.31 1919.09,1702.05 1903.38,1722.82C1901.78,1724.92 1899.64,1726.61 1896.54,1729.46Z" style="fill:white;fill-rule:nonzero;"/>
    <path d="M2526.43,1157.31C2542.71,1164.84 2548.84,1177.51 2550.43,1193.01C2550.9,1197.63 2550.88,1202.32 2550.88,1206.97C2550.91,1242.28 2551.04,1277.58 2550.78,1312.89C2550.72,1320.81 2550.11,1328.94 2548.25,1336.6C2544.28,1352.91 2530.23,1363.5 2513.22,1364.21C2496.17,1364.92 2481.23,1355.63 2475.78,1339.9C2473.64,1333.74 2472.47,1326.92 2472.43,1320.39C2472.13,1279.76 2472.2,1239.12 2472.37,1198.49C2472.39,1193.23 2473.13,1187.81 2474.54,1182.75C2479.46,1165.01 2492.87,1154.89 2511.25,1154.92C2515.85,1154.93 2520.46,1156.11 2526.43,1157.31Z" style="fill:white;fill-rule:nonzero;"/>
    <path d="M2062.03,1362.33C2055.29,1350.7 2049.05,1340.47 2043.45,1329.89C2036.81,1317.37 2036.25,1304.18 2042.81,1291.6C2055.41,1267.43 2089.45,1264.4 2106.7,1285.61C2108.79,1288.17 2110.43,1291.12 2112.09,1293.99C2132.71,1329.71 2153.22,1365.49 2173.95,1401.14C2178.41,1408.79 2181.45,1416.57 2181.25,1425.59C2180.9,1442.18 2172.49,1454.31 2156.52,1460.71C2141.22,1466.83 2127.68,1463.43 2116.15,1452.37C2111.92,1448.32 2108.71,1443.02 2105.72,1437.88C2091.29,1413.19 2077.09,1388.36 2062.03,1362.33Z" style="fill:white;fill-rule:nonzero;"/>
    <path d="M2913.22,1441.48C2909.22,1446.9 2906.55,1451.74 2902.62,1455.12C2888.87,1466.96 2869.21,1467.31 2854.59,1456.39C2839.18,1444.9 2836.65,1427.52 2841.79,1411.68C2843.21,1407.31 2845.83,1403.29 2848.15,1399.25C2867.47,1365.8 2886.83,1332.37 2906.22,1298.96C2908.55,1294.93 2910.82,1290.8 2913.64,1287.12C2925.75,1271.37 2946.46,1267.35 2963.78,1277.18C2979.83,1286.28 2986.87,1305.95 2980.14,1323.92C2978.29,1328.87 2975.48,1333.48 2972.83,1338.09C2953.25,1372.16 2933.6,1406.19 2913.22,1441.48Z" style="fill:white;fill-rule:nonzero;"/>
    <path d="M3288.53,1651.49C3281.76,1657.02 3276.27,1661.95 3270.03,1665.6C3236.15,1685.44 3202.03,1704.88 3168.12,1724.67C3159.3,1729.82 3150.39,1733.55 3139.88,1732.71C3123.65,1731.42 3111.47,1722.02 3106.3,1705.79C3101.37,1690.3 3105.26,1676.85 3116.97,1665.83C3120.31,1662.69 3124.49,1660.35 3128.5,1658.02C3163.62,1637.65 3198.79,1617.38 3233.92,1597.03C3242.12,1592.28 3250.64,1588.63 3260.34,1589.36C3283.78,1591.13 3300.31,1612.68 3295.55,1635.68C3294.5,1640.75 3291.54,1645.43 3288.53,1651.49Z" style="fill:white;fill-rule:nonzero;"/>
</svg>
